# Blender v3.0.0 OBJ File: ''
# www.blender.org
mtllib cube_3removed.mtl
o Cube_Cube.003
v -1.000000 -1.000000 1.000000
v -1.000000 1.000000 1.000000
v -1.000000 -1.000000 -1.000000
v -1.000000 1.000000 -1.000000
v 1.000000 -1.000000 1.000000
v 1.000000 1.000000 1.000000
v 1.000000 -1.000000 -1.000000
v 1.000000 1.000000 -1.000000
vt 0.625000 0.250000
vt 0.375000 0.500000
vt 0.375000 0.250000
vt 0.625000 0.500000
vt 0.375000 0.750000
vt 0.625000 0.750000
vt 0.375000 1.000000
vt 0.625000 1.000000
vn 0.0000 0.0000 -1.0000
vn 1.0000 0.0000 0.0000
vn 0.0000 0.0000 1.0000
usemtl None
s off
f 4/1/1 7/2/1 3/3/1
f 8/4/2 5/5/2 7/2/2
f 6/6/3 1/7/3 5/5/3
f 4/1/1 8/4/1 7/2/1
f 8/4/2 6/6/2 5/5/2
f 6/6/3 2/8/3 1/7/3
